<svg version="1.1" xmlns="http://www.w3.org/2000/svg" xmlns:xlink="http://www.w3.org/1999/xlink" width="55.06257" height="42.8702" viewBox="0,0,55.06257,42.8702"><style>svg {animation: infinite a 1s;}@keyframes a {0% {rotate:0deg}50% {rotate:180deg}100% {rotate:360deg}}</style><defs><linearGradient x1="250.36544" y1="178.75737" x2="250.36544" y2="200.40814" gradientUnits="userSpaceOnUse" id="color-1"><stop offset="0" stop-color="#ffaaaa"/><stop offset="1" stop-color="#aaaaff"/></linearGradient><linearGradient x1="217.77408" y1="185.88803" x2="217.77408" y2="192.44992" gradientUnits="userSpaceOnUse" id="color-2"><stop offset="0" stop-color="#aaaaff"/><stop offset="1" stop-color="#ffaaaa"/></linearGradient><linearGradient x1="225.94019" y1="193.53918" x2="246.80255" y2="193.53918" gradientUnits="userSpaceOnUse" id="color-3"><stop offset="0" stop-color="#ffaaaa"/><stop offset="1" stop-color="#aaaaff"/></linearGradient><linearGradient x1="248.99499" y1="174.24647" x2="248.99499" y2="194.89268" gradientUnits="userSpaceOnUse" id="color-4"><stop offset="0" stop-color="#ffaaaa"/><stop offset="1" stop-color="#aaaaff"/></linearGradient><linearGradient x1="233.52725" y1="175.76197" x2="253.26631" y2="175.76197" gradientUnits="userSpaceOnUse" id="color-5"><stop offset="0" stop-color="#aaaaff"/><stop offset="1" stop-color="#ffaaaa"/></linearGradient><linearGradient x1="219.31029" y1="186.42024" x2="235.1754" y2="186.42024" gradientUnits="userSpaceOnUse" id="color-6"><stop offset="0" stop-color="#ffaaaa"/><stop offset="1" stop-color="#aaaaff"/></linearGradient></defs><g transform="translate(-212.46872,-158.5649)"><g data-paper-data="{&quot;isPaintingLayer&quot;:true}" fill-rule="nonzero" stroke="#000000" stroke-width="0.5" stroke-linecap="butt" stroke-linejoin="miter" stroke-miterlimit="10" stroke-dasharray="" stroke-dashoffset="0" style="mix-blend-mode: normal"><g><path d="M246.75274,180.5642c10.18665,-4.29351 20.43082,0.41262 20.43082,0.41262c0,0 1.75469,7.96329 -9.60684,14.61428c-11.36153,6.65101 -24.12712,4.47749 -24.12712,4.47749l13.05358,-13.22501c0,0 -0.14457,-6.11327 0.24956,-6.27939z" data-paper-data="{&quot;index&quot;:null}" fill="url(#color-1)"/><path d="M222.82945,192.44992h-10.01143c0,0 -0.66918,-4.04153 1.46669,-5.43592c2.13587,-1.39441 8.54473,-1.10001 8.54473,-1.10001z" fill="url(#color-2)"/><path d="M230.05421,199.01155c-6.00215,-5.18361 -3.66673,-13.11828 -3.66673,-13.11828h20.32137l0.0937,14.79275c0,0 -12.62565,1.88596 -16.74834,-1.67447z" fill="url(#color-3)"/><path d="M259.14547,174.24647c0,0 0.62108,11.04681 -4.98676,16.65464c-5.60783,5.60783 -15.33462,3.66673 -15.33462,3.66673v-20.32137z" data-paper-data="{&quot;index&quot;:null}" fill="url(#color-4)"/><path d="M233.52725,158.92568c0,0 12.15883,-1.34706 16.08128,5.35343c3.92243,6.70049 5.14767,8.46355 1.39308,19.06703c-3.75459,10.60348 -7.79639,9.31351 -11.44236,9.31351c-2.41787,0 -6.03199,0 -6.03199,0z" fill="url(#color-5)"/><path d="M233.51111,192.4497c-3.74466,3.63011 -13.78542,0 -13.78542,0c0,0 -1.76461,-7.60692 1.98005,-11.23704c3.74466,-3.63011 11.80537,-2.12671 11.80537,-2.12671c0,0 3.74466,9.73363 0,13.36374z" fill="url(#color-6)"/></g></g></g></svg>
